<?xml version="1.0" encoding="utf-8"?>
<!-- Generator: Adobe Illustrator 28.3.0, SVG Export Plug-In . SVG Version: 6.00 Build 0)  -->
<svg version="1.1" id="Layer_1" xmlns="http://www.w3.org/2000/svg" xmlns:xlink="http://www.w3.org/1999/xlink" x="0px" y="0px"
	 viewBox="0 0 3321.4 2500" style="enable-background:new 0 0 3321.4 2500;" xml:space="preserve">
<style type="text/css">
	.st0{fill:url(#SVGID_1_);}
	.st1{fill:url(#SVGID_00000050632288140061057540000011675298073379825832_);}
	.st2{fill:url(#SVGID_00000026135613895798650380000001630646810715447964_);}
	.st3{fill:url(#SVGID_00000018227641967012409030000005755317739776277178_);}
	.st4{fill:url(#SVGID_00000153691576253821390840000017578434247446628515_);}
	.st5{fill:#FFFFFF;}
	.st6{fill:url(#SVGID_00000047753128527549334700000004417310937447458966_);}
	.st7{fill:url(#SVGID_00000114779695067419792220000004810892871756605374_);}
	.st8{fill:url(#SVGID_00000029765663920892106730000010244920599729458322_);}
	.st9{fill:url(#SVGID_00000039843865237733163970000013724231039622472876_);}
	.st10{fill:none;}
	.st11{fill:url(#SVGID_00000114048949917205856020000001833348999584184766_);}
	.st12{fill:url(#SVGID_00000169540467558495851410000008145803172819865271_);}
	.st13{fill:url(#SVGID_00000132088260058017144850000017298797027946494596_);}
	.st14{fill:url(#SVGID_00000036251680674388325780000018013680809464559240_);}
	.st15{fill:url(#SVGID_00000168080877097885481310000000408650269930050717_);}
	.st16{fill:url(#SVGID_00000008151179697131603430000008454465483740421004_);}
	.st17{fill:url(#SVGID_00000098208750126740970030000007993950614539509665_);}
	.st18{fill:url(#SVGID_00000075884295549936489760000011607871443836214707_);}
	.st19{fill:url(#SVGID_00000109725444525777275680000011717869358760602035_);}
	.st20{fill:url(#SVGID_00000000901281262741554330000009719101965049309320_);}
	.st21{fill:url(#SVGID_00000041296810013043757570000000708940069015612293_);}
	.st22{fill:url(#SVGID_00000040572372196521870380000000809007889160598944_);}
	.st23{fill:url(#SVGID_00000034091290535787053560000006414022578901088660_);}
	.st24{fill:#242A3A;}
	.st25{fill:url(#SVGID_00000005234691602626477780000008973004559210275497_);}
	.st26{fill:#181C2E;}
	.st27{fill:url(#SVGID_00000145774439735850999110000007403725857391005355_);}
	.st28{fill:url(#SVGID_00000057122557233139525220000000379118975016353408_);}
	.st29{fill:url(#SVGID_00000153699407918872147270000017690859880436668346_);}
	.st30{fill:url(#SVGID_00000114792587364800716000000011330816311077882528_);}
	.st31{fill:url(#SVGID_00000049200072957557602530000007262693694691370915_);}
	.st32{fill:url(#SVGID_00000035488793061978073280000016965909053962182016_);}
	.st33{fill:url(#SVGID_00000055709186828702259480000005611812175403565497_);}
	.st34{fill:url(#SVGID_00000147939993399846753850000006846069067995716753_);}
	.st35{fill:url(#SVGID_00000134942245507597056960000009301490995658095030_);}
	.st36{fill:url(#SVGID_00000165944936641333821040000008447678177883399324_);}
	.st37{fill:url(#SVGID_00000178925533924343597940000003772872145248737462_);}
	.st38{fill:url(#SVGID_00000077301181989225879400000005649994427151721623_);}
	.st39{fill:url(#SVGID_00000026865165978548458900000017449792873681069190_);}
	.st40{fill:url(#SVGID_00000088826610598575911010000015928975571234043524_);}
	.st41{fill:url(#SVGID_00000173151028574467056430000018254490117398500487_);}
	.st42{fill:url(#SVGID_00000111179406304117315100000007255119637642172292_);}
	.st43{fill:url(#SVGID_00000030474298440379335580000015734671836874570370_);}
	.st44{fill:url(#SVGID_00000167394684549957705520000002912373645411940737_);}
	.st45{fill:url(#SVGID_00000063627997344917319690000016472413035611307958_);}
	.st46{fill:url(#SVGID_00000072979838705845872610000009426160130407642507_);}
	.st47{fill:url(#SVGID_00000134231978045541663660000003057852398362442633_);}
	.st48{fill:url(#SVGID_00000057836733865885528910000015880201229536896423_);}
	.st49{fill:url(#SVGID_00000080924211353854926910000003728254045203181189_);}
	.st50{fill:url(#SVGID_00000109003259103949421840000003742797147708893578_);}
	.st51{fill:url(#SVGID_00000144307314734969891600000006893502790444488892_);}
	.st52{fill:url(#SVGID_00000165196704786569738180000011965701858493670580_);}
	.st53{fill:url(#SVGID_00000043455932133258098130000015882592592160670630_);}
	.st54{fill:url(#SVGID_00000022536347778440078400000004167222329943899579_);}
	.st55{fill:url(#SVGID_00000002357567392739119680000008500092534509453983_);}
	.st56{fill:url(#SVGID_00000175296359288016797390000004496883804736336520_);}
	.st57{fill:url(#SVGID_00000010271857647323632460000006582587804045010306_);}
	.st58{fill:url(#SVGID_00000066517996816341717430000001480907482792135317_);}
	.st59{fill:url(#SVGID_00000104706064647387099770000011451478954930622871_);}
	.st60{fill:url(#SVGID_00000110466149313640323470000017662875684741535895_);}
	.st61{fill:url(#SVGID_00000169539946295314729920000015728002073570831278_);}
	.st62{fill:url(#SVGID_00000178195011573887359220000001278075647299971232_);}
	.st63{fill:url(#SVGID_00000149346965816611161940000013385374865200239777_);}
	.st64{fill:url(#SVGID_00000152247958128061222140000011600193936439741074_);}
	.st65{fill:url(#SVGID_00000098925359704111565430000010230736989287476368_);}
	.st66{fill:url(#SVGID_00000158708688215802396280000002575253203926646429_);}
	.st67{fill:url(#SVGID_00000090989186790182538700000008658893056250511509_);}
	.st68{fill:url(#SVGID_00000080916171668250016280000014321354268233962137_);}
	.st69{fill:url(#SVGID_00000060735247633291390530000017809980726604794515_);}
	.st70{fill:url(#SVGID_00000139979930283975027540000011786944285181588642_);}
	.st71{fill:url(#SVGID_00000085239479462885865790000014658988402546258082_);}
	.st72{fill:url(#SVGID_00000007427252662988083930000014482027312335668406_);}
	.st73{fill:url(#SVGID_00000118365778570236693150000006476664048305324930_);}
	.st74{fill:url(#SVGID_00000175305219826125785090000012695658003570225820_);}
	.st75{fill:url(#SVGID_00000142164500406434576620000018149357913529864123_);}
	.st76{fill:url(#SVGID_00000079465231513662130900000008240226885915958424_);}
	.st77{fill:url(#SVGID_00000072242172938663367790000013572990197662751655_);}
	.st78{fill:url(#SVGID_00000100378166911295896880000006416942588370834828_);}
	.st79{fill:url(#SVGID_00000121251003438672917970000005078476714619506855_);}
	.st80{fill:url(#SVGID_00000021797850856851017540000004984607033358306184_);}
	.st81{fill:url(#SVGID_00000183932642596576921260000004449081734586548107_);}
	.st82{fill:url(#SVGID_00000155131567517210189670000014336210635129928084_);}
	.st83{fill:url(#SVGID_00000080917997738826447420000018077339360523211651_);}
	.st84{fill:url(#SVGID_00000060001629609071914250000015966179451388978866_);}
	.st85{fill:url(#SVGID_00000119801414078982742940000001947061370575933081_);}
	.st86{fill:url(#SVGID_00000029733432559663449330000008654909733348576411_);}
	.st87{fill:url(#SVGID_00000117646325666040508150000013543802356227702912_);}
	.st88{fill:url(#SVGID_00000050639989146013749010000017279534971018642070_);}
	.st89{fill:url(#SVGID_00000009559428044445432290000007213176425982605736_);}
	.st90{fill:url(#SVGID_00000159440634078312498670000003925461831272328068_);}
	.st91{fill:url(#SVGID_00000132787374791497480450000004960699070563124376_);}
	.st92{fill:url(#SVGID_00000172430328302969476170000001597463173187479742_);}
	.st93{fill:url(#SVGID_00000021806364121335744320000013894541382766371479_);}
	.st94{fill:url(#SVGID_00000134940301133488400560000013619184306378932924_);}
	.st95{fill:url(#SVGID_00000132801319516159159990000018401465923104248494_);}
	.st96{fill:url(#SVGID_00000018952784865539390410000016419559276324959398_);}
	.st97{fill:url(#SVGID_00000101086510166119165940000003881150558892695424_);}
	.st98{fill:url(#SVGID_00000171684889505625150870000018303900991819211180_);}
	.st99{fill:url(#SVGID_00000086679814641124611340000013658371239162354872_);}
	.st100{fill:url(#SVGID_00000057829715664192989610000004110957735202595258_);}
	.st101{fill:url(#SVGID_00000015344539834280985710000006896920989478153121_);}
	.st102{fill:url(#SVGID_00000088100940859599258600000016140502986115735227_);}
	.st103{fill:url(#SVGID_00000135686506164149848210000005115168742050600089_);}
	.st104{fill:url(#SVGID_00000126292195572317143550000010696302410447531409_);}
	.st105{fill:url(#SVGID_00000024690606741884436950000009366421651827392958_);}
	.st106{fill:url(#SVGID_00000163794953049148208000000015611270622429304458_);}
</style>
<g>
	<path class="st26" d="M1642.96,1322.95c5.99,0,13.05,0.18,21,0.18c7.77,0,15-0.18,21.88-0.18l-1.58,4.24l-12.36,5.29v46.07
		c0,28.07,0.35,49.42,0.71,52.24l37.77,2.3c4.4-6.72,12.52-18.71,16.4-23.12l3.35-0.18c-0.69,7.94-4.24,25.41-5.99,30.18
		c-6.17,0-20.66-0.71-59.83-0.71c-8.48,0-16.95,0.18-24.72,0.18l1.24-4.06l14.65-5.3c0.35-2.29,0.71-23.82,0.71-51.35v-46.25
		l-14.65-5.29L1642.96,1322.95z"/>
	<path class="st26" d="M1752.92,1322.95c6.9,0,13.78,0.18,20.66,0.18c7.23,0,14.65-0.18,21.88-0.18l-1.24,4.24l-12.87,5.11v46.42
		c0,29.29,0.53,48.18,0.89,51.18l16.23,5.3l-1.22,4.24c-6.72,0-14.49-0.18-23.65-0.18c-8.83,0-17.31,0.18-24.19,0.18l1.24-4.24
		l13.94-5.3c0.71-2.82,1.06-21.88,1.06-51.18v-46.6l-13.94-5.11L1752.92,1322.95z"/>
	<path class="st26" d="M1882.12,1319.78c28.25,0,61.42,18.88,61.96,59.3c0.71,44.47-32.47,63.53-61.42,63.53
		c-29.29,0-61.94-19.06-61.94-60.18c0-41.83,34.24-62.65,61.23-62.65H1882.12z M1881.07,1326.3c-26.65,0-41.83,23.12-41.83,53.3
		c0,28.76,17.29,56.65,45.36,56.65c30.18,0,40.94-28.42,40.94-55.08c0-29.47-18.35-54.88-44.3-54.88H1881.07z"/>
	<path class="st26" d="M1968.98,1325.41c8.1-1.76,27.34-3.53,41.46-3.53c28.96,0,43.25,10.05,43.25,29.65
		c0,18.88-15,26.83-27.71,31.07v0.35c3.88,6.53,17.13,25.41,27.01,38.48c9.89,13.05,12.89,16.23,15,19.24l-1.22,1.4
		c-13.42-0.89-21.19-5.82-28.42-13.94c-7.59-8.65-20.13-25.59-31.42-43.43l0.53-1.05c16.6-4.42,29.31-11.65,29.31-29.47
		c0-22.08-18.19-25.96-38.66-25.43v54.19c0,24.19-0.18,37.77,0.35,46.6l17.29,5.64l-1.24,4.24c-8.46,0-16.58-0.18-25.06-0.18
		c-7.59,0-15.18,0.18-22.77,0.18l1.24-4.24l13.23-5.46c0.35-6.72,1.24-23.48,1.24-46.6v-51.19l-15-2.11L1968.98,1325.41z"/>
	<path class="st26" d="M2137.54,1325.41c8.12-1.76,27.36-3.53,41.48-3.53c28.94,0,43.25,10.05,43.25,29.65
		c0,18.88-15.02,26.83-27.71,31.07v0.35c3.88,6.53,17.11,25.41,27.01,38.48c9.88,13.05,12.87,16.23,15,19.24l-1.24,1.4
		c-13.41-0.89-21.17-5.82-28.41-13.94c-7.59-8.65-20.13-25.59-31.42-43.43l0.53-1.05c16.58-4.42,29.29-11.65,29.29-29.47
		c0-22.08-18.18-25.96-38.66-25.43v54.19c0,24.19-0.18,37.77,0.35,46.6l17.31,5.64l-1.24,4.24c-8.48,0-16.6-0.18-25.06-0.18
		c-7.59,0-15.18,0.18-22.77,0.18l1.22-4.24l13.25-5.46c0.35-6.72,1.22-23.48,1.22-46.6v-51.19l-15-2.11L2137.54,1325.41z"/>
	<path class="st26" d="M2319.35,1318.89l1.06,0.89c-0.18,2.82,0.35,5.99,2.47,12.17c2.47,7.25,19.77,51.19,36.88,93.55
		c3.35,4.4,6.01,5.99,17.84,9.88l-1.24,4.06c-6.53,0-13.94-0.18-20.83-0.18c-5.99,0-11.99,0.18-18.71,0.18l1.06-3.71l6.53-5.12
		c-1.4-4.58-6.35-16.94-13.23-34.06c-7.23,0.53-15.36,1.24-39.36,0.89c-6.53,16.77-9.17,23.65-12,31.95l15.53,5.99l-1.05,4.06
		c-6.19,0-14.13-0.18-20.83-0.18c-6.17,0-12,0.18-18.18,0.18l1.06-4.24l12.34-5.82c5.12-10.43,24.36-54.9,38.66-91.6
		c0.89-2.11,1.06-3.88,0.53-5.48l-1.76-4.75L2319.35,1318.89z M2311.76,1344.12c-8.12,21.88-12.71,33-16.6,44.31
		c4.95,0,26.14,0.69,33.55,0.69c-6.72-18-11.83-31.94-16.6-45H2311.76z"/>
	<path class="st26" d="M2397.92,1322.95c6.35,0,13.76,0.18,20.29,0.18c6.88,0,12-0.18,16.77-0.18l-1.24,4.24l-7.59,5.46v40.07h61.42
		v-39.9l-8.65-6.17l1.42-3.71c5.11,0,10.05,0.18,15.18,0.18c8.28,0,16.4-0.18,23.28-0.18l-1.4,4.42l-14.12,5.29v46.42
		c0,19.95,0.52,48.18,1.22,50.31l16.24,5.64l-1.6,4.42c-7.06,0-15.53-0.18-23.64-0.18c-6.01,0-11.47,0.18-16.42,0.18l1.24-4.42
		l7.06-5.46c0.53-17.31,0.18-32.66,0.18-49.24c-4.06,0.69-13.42,1.05-22.77,1.05h-38.66c0,14.49-0.53,29.31,0.18,47.49l8.12,6.53
		l-1.42,4.06c-4.59,0-9.35-0.18-15.36-0.18c-7.59,0-16.05,0.18-23.12,0.18l1.6-4.24l13.25-5.3c0.16-4.4,1.05-30.34,1.05-51.88
		v-45.71l-14.12-5.11L2397.92,1322.95z"/>
	<path class="st26" d="M2603.01,1318.89l1.05,0.89c-0.18,2.82,0.35,5.99,2.48,12.17c2.47,7.25,19.75,51.19,36.88,93.55
		c3.35,4.4,5.99,5.99,17.82,9.88l-1.24,4.06c-6.53,0-13.94-0.18-20.82-0.18c-5.99,0-12,0.18-18.71,0.18l1.06-3.71l6.53-5.12
		c-1.42-4.58-6.35-16.94-13.25-34.06c-7.23,0.53-15.34,1.24-39.35,0.89c-6.53,16.77-9.18,23.65-12,31.95l15.53,5.99l-1.06,4.06
		c-6.17,0-14.12-0.18-20.82-0.18c-6.19,0-12,0.18-18.18,0.18l1.05-4.24l12.36-5.82c5.12-10.43,24.36-54.9,38.66-91.6
		c0.89-2.11,1.05-3.88,0.53-5.48l-1.77-4.75L2603.01,1318.89z M2595.42,1344.12c-8.12,21.88-12.71,33-16.6,44.31
		c4.95,0,26.12,0.69,33.53,0.69c-6.7-18-11.83-31.94-16.6-45H2595.42z"/>
	<path class="st26" d="M2688.62,1323.13l28.58-0.18c0.35,4.24,1.6,6.88,2.13,8.12c3.53,7.94,17.47,35.82,39.53,81.89h0.35
		c4.59-9.36,24.88-49.6,40.41-82.95c0.71-1.6,0.53-3.35,0.53-7.06l32.65,0.18l-1.4,4.42l-15,5.11c0.53,19.95,3.53,92.14,4.24,97.24
		l16.05,5.3l-0.87,4.24c-6.54,0-15.36-0.18-22.95-0.18c-7.23,0-14.65,0.18-21.37,0.18l1.42-4.24l10.94-5.3
		c-0.53-21.88-0.89-63.18-1.42-89.65h-0.52c-9.89,21.88-24.19,51.19-45.71,100.61l-3.35,0.34c-9.01-20.11-16.06-36.53-42.72-96.53
		h-0.35c-2.11,25.23-4.77,67.77-5.3,84.72l15.89,5.99l-1.05,4.06c-6.72,0-13.42-0.18-21.01-0.18c-5.82,0-12.54,0.18-18.18,0.18
		l0.89-4.06l12.52-5.82c2.66-15.18,7.23-57.72,10.6-92.84c-1.6-4.93-2.84-5.29-17.31-9.17L2688.62,1323.13z"/>
	<path class="st26" d="M2858.61,1322.95c6.88,0,13.76,0.18,20.64,0.18c7.23,0,14.65-0.18,21.88-0.18l-1.22,4.24l-12.89,5.11v46.42
		c0,29.29,0.53,48.18,0.89,51.18l16.24,5.3l-1.24,4.24c-6.7,0-14.47-0.18-23.65-0.18c-8.83,0-17.29,0.18-24.17,0.18l1.22-4.24
		l13.95-5.3c0.69-2.82,1.05-21.88,1.05-51.18v-46.6l-13.94-5.11L2858.61,1322.95z"/>
	<path class="st26" d="M2930.27,1323.13l28.58-0.18c0.35,4.24,1.6,6.88,2.13,8.12c3.53,7.94,17.47,35.82,39.53,81.89h0.35
		c4.59-9.36,24.88-49.6,40.41-82.95c0.71-1.6,0.53-3.35,0.53-7.06l32.65,0.18l-1.4,4.42l-15,5.11c0.53,19.95,3.53,92.14,4.24,97.24
		l16.05,5.3l-0.87,4.24c-6.54,0-15.36-0.18-22.95-0.18c-7.23,0-14.65,0.18-21.37,0.18l1.42-4.24l10.94-5.3
		c-0.53-21.88-0.89-63.18-1.42-89.65h-0.52c-9.89,21.88-24.19,51.19-45.71,100.61l-3.35,0.34c-9.01-20.11-16.06-36.53-42.72-96.53
		h-0.35c-2.11,25.23-4.77,67.77-5.3,84.72l15.89,5.99l-1.05,4.06c-6.72,0-13.42-0.18-21.01-0.18c-5.82,0-12.54,0.18-18.18,0.18
		l0.89-4.06l12.52-5.82c2.66-15.18,7.23-57.72,10.6-92.84c-1.6-4.93-2.84-5.29-17.31-9.17L2930.27,1323.13z"/>
	<path class="st26" d="M1642.96,1553.95c5.99,0,13.05,0.18,21,0.18c7.77,0,15-0.18,21.88-0.18l-1.58,4.24l-12.36,5.29v46.07
		c0,28.07,0.35,49.42,0.71,52.24l37.77,2.3c4.4-6.72,12.52-18.71,16.4-23.12l3.35-0.18c-0.69,7.94-4.24,25.41-5.99,30.18
		c-6.17,0-20.66-0.71-59.83-0.71c-8.48,0-16.95,0.18-24.72,0.18l1.24-4.06l14.65-5.3c0.35-2.29,0.71-23.82,0.71-51.35v-46.25
		l-14.65-5.29L1642.96,1553.95z"/>
	<path class="st26" d="M1813.99,1549.89l1.06,0.89c-0.18,2.82,0.34,5.99,2.47,12.17c2.47,7.25,19.77,51.19,36.88,93.55
		c3.35,4.4,5.99,5.99,17.82,9.88l-1.22,4.06c-6.54,0-13.95-0.18-20.83-0.18c-5.99,0-12,0.18-18.71,0.18l1.06-3.71l6.53-5.12
		c-1.4-4.58-6.35-16.94-13.23-34.06c-7.23,0.53-15.36,1.24-39.36,0.89c-6.53,16.77-9.17,23.65-12,31.95l15.53,5.99l-1.06,4.06
		c-6.17,0-14.12-0.18-20.82-0.18c-6.17,0-12,0.18-18.18,0.18l1.06-4.24l12.34-5.82c5.12-10.43,24.36-54.9,38.66-91.6
		c0.89-2.11,1.06-3.88,0.53-5.48l-1.77-4.75L1813.99,1549.89z M1806.4,1575.12c-8.12,21.88-12.71,33-16.6,44.31
		c4.95,0,26.12,0.69,33.53,0.69c-6.7-18-11.83-31.94-16.58-45H1806.4z"/>
	<path class="st26" d="M1872.06,1553.95c5.66,0,12.18,0.35,19.24,0.35c5.3,0,10.76-0.18,15.89-0.35l-1.06,4.24l-5.11,4.24
		c3.35,9.35,9.17,23.28,36.17,89.12h0.53c5.3-10.41,10.41-21.35,19.95-42.36c-6.9-16.76-14.49-33.71-19.42-44.3
		c-2.66-2.64-5.83-4.59-13.78-6.7l1.6-4.24c5.12,0,12.18,0.35,18,0.35c3.35,0,6.7-0.18,9.72-0.35l0.18,0.71l0.87,8.12
		c1.6,4.75,3.01,8.64,12.36,29.83h0.35c7.23-15.71,9.7-20.48,13.07-29.83l0.34-8.12l0.35-0.71c2.48,0.18,5.3,0.35,7.94,0.35
		c6.19,0,11.65-0.35,16.95-0.35l-1.24,4.24c-8.83,2.82-12.71,4.75-16.24,8.3c-2.29,4.04-7.06,11.81-18,34.4
		c1.77,4.06,8.48,19.95,21.53,49.77h0.18c7.77-20.29,20.48-54.35,31.78-87.54l-5.82-4.93l1.58-4.24c3.17,0.18,6.7,0.35,10.41,0.35
		c6.88,0,13.42-0.35,19.42-0.35l-1.06,4.24c-8.28,2.47-11.81,4.42-15.18,7.59c-4.75,8.64-23.64,57.52-38.99,96.71
		c-1.77,3.88-5.3,8.48-7.77,11.12h-1.42c-3.35-6.88-13.58-32.11-23.82-55.59h-0.35c-10.76,22.06-16.77,34.42-21.88,45.18
		c-1.95,3.35-5.48,7.94-8.12,10.41h-1.24c-5.12-11.47-36-87.54-45.54-108.36c-2.82-2.82-5.82-4.59-14.12-7.06L1872.06,1553.95z"/>
	<path class="st26" d="M2116.53,1553.77c6.36,0,13.25,0.18,19.77,0.18h44.65c1.95-0.35,11.47-2.13,14.31-2.13l0.52,0.53
		c-0.18,3.53-3,21.54-4.06,26.3l-3.17,1.77c-3-7.06-5.29-13.42-7.41-19.77l-35.82,1.42v46.94c16.58,0,34.95-0.89,45.89-2.29
		l0.69,1.76c-0.69,1.6-8.64,10.25-10.05,10.25c-4.06,0-31.24-1.95-36.53-1.95c0,30.53,0.35,39.01,0.71,43.78l19.58,5.64l-1.4,4.24
		c-7.06,0-16.42-0.18-26.47-0.18c-7.23,0-14.65,0.18-22.41,0.18l1.06-4.06l12.52-5.82c0.53-2.48,0.71-18.37,0.71-50.66v-47.12
		l-14.65-5.12L2116.53,1553.77z"/>
	<path class="st26" d="M2219.45,1553.95c6.88,0,13.76,0.18,20.64,0.18c7.23,0,14.65-0.18,21.9-0.18l-1.24,4.24l-12.89,5.11v46.42
		c0,29.29,0.53,48.18,0.89,51.18l16.24,5.3l-1.24,4.24c-6.7,0-14.47-0.18-23.65-0.18c-8.81,0-17.29,0.18-24.17,0.18l1.22-4.24
		l13.95-5.3c0.71-2.82,1.05-21.88,1.05-51.18v-46.6l-13.94-5.11L2219.45,1553.95z"/>
	<path class="st26" d="M2287.93,1556.41c8.12-1.76,27.36-3.53,41.48-3.53c28.96,0,43.25,10.05,43.25,29.65
		c0,18.88-15,26.83-27.71,31.07v0.35c3.88,6.53,17.13,25.41,27.01,38.48c9.88,13.05,12.89,16.23,15,19.24l-1.24,1.4
		c-13.41-0.89-21.17-5.82-28.41-13.94c-7.59-8.65-20.13-25.59-31.42-43.43l0.53-1.05c16.6-4.42,29.29-11.65,29.29-29.47
		c0-22.08-18.18-25.96-38.64-25.43v54.19c0,24.19-0.18,37.77,0.34,46.6l17.31,5.64l-1.24,4.24c-8.48,0-16.58-0.18-25.06-0.18
		c-7.59,0-15.18,0.18-22.77,0.18l1.22-4.24l13.25-5.46c0.35-6.72,1.24-23.48,1.24-46.6v-51.19l-15.02-2.11L2287.93,1556.41z"/>
	<path class="st26" d="M2413.61,1554.13l28.58-0.18c0.35,4.24,1.6,6.88,2.13,8.12c3.53,7.94,17.47,35.82,39.53,81.89h0.35
		c4.59-9.36,24.88-49.6,40.41-82.95c0.71-1.6,0.53-3.35,0.53-7.06l32.65,0.18l-1.4,4.42l-15,5.11c0.53,19.95,3.53,92.14,4.24,97.24
		l16.05,5.3l-0.87,4.24c-6.54,0-15.36-0.18-22.95-0.18c-7.23,0-14.65,0.18-21.37,0.18l1.42-4.24l10.94-5.3
		c-0.53-21.88-0.89-63.18-1.42-89.65h-0.52c-9.89,21.88-24.19,51.19-45.71,100.61l-3.35,0.34c-9.01-20.11-16.06-36.53-42.72-96.53
		h-0.35c-2.11,25.23-4.77,67.77-5.3,84.72l15.89,5.99l-1.05,4.06c-6.72,0-13.42-0.18-21.01-0.18c-5.82,0-12.54,0.18-18.18,0.18
		l0.89-4.06l12.52-5.82c2.66-15.18,7.23-57.72,10.6-92.84c-1.6-4.93-2.84-5.29-17.31-9.17L2413.61,1554.13z"/>
</g>
<linearGradient id="SVGID_1_" gradientUnits="userSpaceOnUse" x1="242.1266" y1="1263.7456" x2="1721.3234" y2="1001.1522">
	<stop  offset="0" style="stop-color:#D7B267"/>
	<stop  offset="0.0106" style="stop-color:#DBB66B"/>
	<stop  offset="0.023" style="stop-color:#E6C176"/>
	<stop  offset="0.0362" style="stop-color:#FBD689"/>
	<stop  offset="0.0379" style="stop-color:#FFD98C"/>
	<stop  offset="0.0811" style="stop-color:#E0B869"/>
	<stop  offset="0.1047" style="stop-color:#D4AB5A"/>
	<stop  offset="0.1186" style="stop-color:#CEA85E"/>
	<stop  offset="0.1428" style="stop-color:#C9A561"/>
	<stop  offset="0.1693" style="stop-color:#CEAA65"/>
	<stop  offset="0.2031" style="stop-color:#DDB871"/>
	<stop  offset="0.2212" style="stop-color:#E8C37B"/>
	<stop  offset="0.2995" style="stop-color:#F3DDB1"/>
	<stop  offset="0.3259" style="stop-color:#F7E3BB"/>
	<stop  offset="0.3824" style="stop-color:#FFF1CD"/>
	<stop  offset="0.5039" style="stop-color:#FFE4B0"/>
	<stop  offset="0.6345" style="stop-color:#FFE2A7"/>
	<stop  offset="0.6747" style="stop-color:#FFE1A3"/>
	<stop  offset="0.7832" style="stop-color:#D4B165"/>
	<stop  offset="0.8242" style="stop-color:#D1AB5F"/>
	<stop  offset="0.8678" style="stop-color:#E0B662"/>
	<stop  offset="0.8756" style="stop-color:#E3B963"/>
	<stop  offset="0.8938" style="stop-color:#E7BD6A"/>
	<stop  offset="0.923" style="stop-color:#F1CA7D"/>
	<stop  offset="0.9418" style="stop-color:#FAD58C"/>
	<stop  offset="0.9471" style="stop-color:#E9C47C"/>
	<stop  offset="0.9575" style="stop-color:#C29E57"/>
	<stop  offset="0.9588" style="stop-color:#BD9A53"/>
</linearGradient>
<path class="st0" d="M1545.89,1647.79v4.14c0,11.97-9.71,21.68-21.68,21.68l-213.17,0c-8.53,0-16.58-4-21.36-11.07
	c-23-33.98-48.61-81.5-76.81-142.54l-50.34-110.36c-15.07-32.7-27.98-55.93-38.73-69.71c-10.75-13.76-21.84-23.23-33.23-28.39
	c-11.41-5.17-28.94-7.75-52.6-7.75l-11.43,0c-14.75,0-26.45-11.94-26.02-26.69c0.34-11.58,1.76-26.08,1.87-43.46
	c0.02-2.39,1.8-4.42,4.19-4.42c14.09,0,58.91,0,58.91,0c34.2,0,62.43-4.61,84.67-13.87c22.22-9.25,39.87-22.16,52.92-38.73
	c13.03-16.55,22.02-36.03,26.94-58.41c4.91-22.36,7.38-46.89,7.38-73.57c0-58.51-13.69-102.4-41.06-131.66
	c-27.2-29.07-139.99-51.3-194.29-51.57c-0.71,0-1.37-0.04-2.07-0.11L808.84,841c-8.46-1.14-34.88-3.79-57.05-5.06
	c-11.48-0.66-20.4-10.13-20.4-21.63c0-11.97,9.71-21.68,21.68-21.68h354.59c50.76,0,93.9,3.54,129.41,10.65
	c35.49,7.1,66.58,17.97,93.26,32.59c22.36,12.05,41.31,27.22,56.79,45.5c15.49,18.3,27.44,39.59,35.83,63.9
	c8.39,24.31,12.59,52.59,12.59,84.87c0,42.16-7.43,78.32-22.28,108.42c-14.83,30.13-34.85,55.19-60.01,75.19
	c-25.18,20.01-58.85,38.83-101,56.48v6.46c31.83,13.77,58.17,32.17,79.05,55.18c20.88,23.03,39.69,52.18,56.49,87.45l40.65,87.77
	c18.08,39.16,36.03,68.53,53.88,88.1c14.24,15.62,30.61,26.38,49.1,32.27C1540.16,1630.25,1545.89,1638.61,1545.89,1647.79z
	 M329.64,655.05c12.3,3.68,22.25,7.72,29.81,12.11c9.25,5.38,16.13,12.37,20.66,20.97c4.52,8.62,7.31,19.8,8.39,33.57
	c1.06,13.77,1.62,30.77,1.62,50.98v311.96c59.46-55.77,140.55-85.82,172.2-158.27c13.34-27.48,21.42-59.34,27.87-93.46v-61.53
	c0-20.65,0.74-37.75,2.26-51.3c1.5-13.56,4.72-24.63,9.69-33.25c4.92-8.6,11.93-15.37,20.98-20.33c7.32-4.01,16.77-7.8,28.32-11.39
	c4.93-1.53,8.45-6.02,8.45-11.18v-22.22c0-6.45-5.23-11.68-11.68-11.68H332.73c-6.45,0-11.68,5.23-11.68,11.68v22.12
	C321.06,649.05,324.65,653.55,329.64,655.05z M937.99,1230.27h-66.75c-5.46,0-10.08,3.65-11.26,8.98
	c-4.49,20.21-10.19,41.64-17.12,64.28c-7.97,26.03-17.41,47.11-28.38,63.24c-10.97,16.13-24,28.07-39.05,35.82
	c-15.07,7.75-35.07,11.62-60.03,11.62H601.86c-6.45,0-11.68-5.23-11.68-11.68v-373.2c-22.55,28.77-51.16,53.23-79.34,71.18
	c-42.88,29.86-84.48,51.25-105.26,97.3c-8.7,19.4-13.13,40.79-15.46,62.9v67.67c0,20.66-0.66,37.76-1.94,51.31
	c-1.3,13.55-4.2,24.75-8.71,33.56c-4.52,8.83-11.41,15.81-20.66,20.98c-7.55,4.21-17.28,8.13-29.23,11.76
	c-4.96,1.51-8.52,6-8.52,11.19v22.16c0,6.45,5.23,11.68,11.68,11.68h592.34c6.2,0,11.32-4.85,11.66-11.04l12.92-237.39
	C950.01,1235.89,944.69,1230.27,937.99,1230.27z"/>
</svg>
